<svg viewBox="0 0 369.70588235294116 66.97377746279234" preserveAspectRatio="xMidYMid meet" class="css-g5ufxp" id="ahchdaba"><defs id="SvgjsDefs9122"></defs><g id="SvgjsG9123" featurekey="LwVBM5-0" transform="matrix(2.2324592487597448,0,0,2.2324592487597448,-20.092133238837704,-78.13607370659106)" fill="#fff"><g xmlns="http://www.w3.org/2000/svg"><g><path d="M44,65h-6c-1.3,0-2.4-0.8-2.8-2h-6.4l-6.9-2.7c-2.4-1-3.9-3.2-3.9-5.8v-8.9c0-2.6,1.5-4.9,3.9-5.8l6.9-2.7h6.4    c0.4-1.2,1.5-2,2.8-2h6c1.7,0,3,1.3,3,3v24C47,63.7,45.7,65,44,65z M29.2,61H37v1c0,0.6,0.4,1,1,1h6c0.6,0,1-0.4,1-1V38    c0-0.6-0.4-1-1-1h-6c-0.6,0-1,0.4-1,1v1h-7.8l-6.5,2.6c-1.6,0.7-2.7,2.2-2.7,4v8.9c0,1.8,1.1,3.3,2.7,4L29.2,61z"></path></g><g><rect x="46" y="41" width="6" height="4"></rect></g><g><rect x="46" y="55" width="6" height="4"></rect></g><g><rect x="35" y="41" width="2" height="18"></rect></g></g><g xmlns="http://www.w3.org/2000/svg"><path d="M63,65h-6c-1.7,0-3-1.3-3-3V38c0-1.7,1.3-3,3-3h6c1.3,0,2.4,0.8,2.8,2h6.4l6.9,2.7c2.4,1,3.9,3.2,3.9,5.8v8.9   c0,2.6-1.5,4.9-3.9,5.8L72.2,63h-6.4C65.4,64.2,64.3,65,63,65z M57,37c-0.6,0-1,0.4-1,1v24c0,0.6,0.4,1,1,1h6c0.6,0,1-0.4,1-1v-1   h7.8l6.5-2.6c1.6-0.7,2.7-2.2,2.7-4v-8.9c0-1.8-1.1-3.3-2.7-4L71.8,39H64v-1c0-0.6-0.4-1-1-1H57z"></path></g><g xmlns="http://www.w3.org/2000/svg"><rect x="64" y="41" width="2" height="18"></rect></g><g xmlns="http://www.w3.org/2000/svg"><rect x="9" y="49" width="10" height="2"></rect></g><g xmlns="http://www.w3.org/2000/svg"><rect x="82" y="49" width="10" height="2"></rect></g></g><g id="SvgjsG9124" featurekey="YhTCwJ-0" transform="matrix(2.7710318902890285,0,0,2.7710318902890285,203.74042762485294,-9.55846652277171)" fill="#fff"><path d="M0.78877 6.390000000000001 l-0.33422 -0.41444 l5.254 0 l0 2.1123 l-3.623 0 l0.54813 0.41444 l0 3.4225 l2.1524 0 l0 2.1123 l-2.7005 0 l0.54813 0.41444 l0 5.5214 l-1.8449 0 l0 -13.583 z M7.967924598930482 20.040107 l-1.6176 0 l0 -13.596 l-0.33422 -0.40107 l1.9519 0 l0 13.997 z M9.826235294117648 13.0348 l0.54813 0.40107 l0 4.7193 l1.8182 0 l0 -5.1203 l-2.3663 0 z M13.796835294117649 12.5134 l0 6.1631 c0 0.70856 -0.61497 1.3235 -1.3235 1.3235 l-2.3797 0 c-0.74866 0 -1.3235 -0.61497 -1.3235 -1.3235 l0 -6.1631 c0 -0.74866 0.57487 -1.3235 1.3235 -1.3235 l2.3797 0 c0.74866 0 1.3235 0.61497 1.3235 1.3235 z M17.50001871657754 11.2567 l1.6578 0 l0.73529 6.0428 l0.74866 -6.0428 l1.6176 0 l-1.0829 8.7968 l-2.5535 0 l-0.29412 -3.5695 l-0.29412 3.5695 l-2.5535 0 l-1.0294 -8.3957 l-0.33422 -0.40107 l1.8984 0 l0.73529 6.0428 z M27.152376470588237 15.8021 l0.53476 0.41444 l0 1.9519 l1.8316 0 l0 -2.3663 l-2.3663 0 z M31.109576470588237 12.5267 l0 7.4733 l0 0.013369 l-3.6898 -0.013369 c-0.74866 0 -1.3235 -0.57487 -1.3235 -1.3102 l0 -3.4091 c0 -0.73529 0.57487 -1.3102 1.3235 -1.3102 l2.0989 0 l0 -0.92246 l-3.4225 -0.013369 l0 -0.50802 c0 -0.74866 0.57487 -1.3235 1.3235 -1.3235 l2.3797 0 c0.73529 0 1.3102 0.57487 1.3102 1.3235 z M31.911760748663102 20.053476 l0 -8.3824 l-0.33422 -0.41444 l3.2086 0 c0.73529 0 1.3102 0.57487 1.3102 1.3235 l0 0.50802 l-3.1283 0 l0.54813 0.41444 l0 6.5508 l-1.6043 0 z M37.52675294117647 13.0749 l0.54813 0.40107 l0 4.6791 l2.5802 0 l0 1.8182 l-2.861 0 c-0.73529 0 -1.3102 -0.57487 -1.3102 -1.3102 l0 -10.682 l1.5909 0 l0 3.262 l1.8048 0 l0 1.8182 z M42.66041390374331 19.946524 l-1.5775 0 l0 -8.2754 l-0.33422 -0.40107 l1.9118 0 l0 8.6765 z M42.66041390374331 8.556 l0 1.8048 l-1.5775 0 l0 -1.8048 l1.5775 0 z M44.69253475935828 11.2299 l2.393 0 c0.70856 0 1.3235 0.58824 1.3235 1.3102 l0 1.4305 l-1.6043 0 l0 -0.90909 l-2.3797 0 l0.54813 0.41444 l0 0.49465 l3.4358 2.5 l0 2.2326 c0 0.74866 -0.61497 1.3235 -1.3235 1.3235 l-2.393 0 c-0.73529 0 -1.3102 -0.57487 -1.3102 -1.3235 l0 -1.4305 l1.5909 0 l0 0.92246 l1.8182 0 l0 -0.92246 l-3.4225 -2.4866 l0 -2.246 c0 -0.73529 0.57487 -1.3102 1.3235 -1.3102 z M50.10692192513368 15.8021 l0.53476 0.41444 l0 1.9519 l1.8316 0 l0 -2.3663 l-2.3663 0 z M54.06412192513368 12.5267 l0 7.4733 l0 0.013369 l-3.6898 -0.013369 c-0.74866 0 -1.3235 -0.57487 -1.3235 -1.3102 l0 -3.4091 c0 -0.73529 0.57487 -1.3102 1.3235 -1.3102 l2.0989 0 l0 -0.92246 l-3.4225 -0.013369 l0 -0.50802 c0 -0.74866 0.57487 -1.3235 1.3235 -1.3235 l2.3797 0 c0.73529 0 1.3102 0.57487 1.3102 1.3235 z M54.86633636363636 19.986631 l0 -8.3824 l-0.33422 -0.41444 l4.0374 0 c0.70856 0 1.3235 0.57487 1.3235 1.3235 l0 7.4733 l-1.6043 0 l0 -6.9652 l-2.3663 0 l0.54813 0.41444 l0 6.5508 l-1.6043 0 z"></path></g><g id="SvgjsG9125" featurekey="duLK5n-0" transform="matrix(0.3769444968133102,0,0,0.3769444968133102,204.50997217211682,53.88467574109853)" fill="#fff"><path d="M1.3 20 l0 -14.24 l5.12 0 c0.9 0 1.76 0.36 2.38 1 c0.64 0.62 1 1.48 1 2.38 c0 0.7 -0.2 1.36 -0.6 1.92 l-0.02 0.02 l0.02 0.02 c0.56 0.22 1.08 0.56 1.5 1 c0.88 0.86 1.36 2.02 1.36 3.26 c0 1.22 -0.48 2.38 -1.36 3.26 c-0.86 0.86 -2.02 1.38 -3.24 1.38 l-6.16 0 z M3.08 18.26 l4.38 0 c1.56 -0.04 2.82 -1.36 2.82 -2.9 c0 -1.56 -1.26 -2.84 -2.82 -2.86 l-4.38 0 l0 5.76 z M3.08 10.76 l3.34 0 c0.88 -0.02 1.6 -0.74 1.6 -1.62 s-0.7 -1.6 -1.6 -1.64 l-3.34 0 l0 3.26 z M29.340000000000003 20 l0 -7.2 l-5.02 -7.04 l2.2 0 l3.74 5.22 l3.74 -5.22 l2.18 0 l-5.02 7.04 l0 7.2 l-1.82 0 z M81.44000000000001 20 l-1.78 0 l0 -11.36 l-4.54 6.2 l-4.52 -6.2 l0 11.36 l-1.78 0 l0 -14.24 l1.88 0 l4.42 6.08 l4.42 -6.08 l1.9 0 l0 14.24 z M98.58 20 l0 -14.24 l1.8 0 l0 14.24 l-1.8 0 z M121.64 20.14 c-0.48 0 -0.96 -0.06 -1.44 -0.16 c-1.48 -0.3 -2.94 -1.04 -4.24 -2.16 l1.18 -1.34 c1.06 0.92 2.24 1.54 3.42 1.78 c1 0.22 1.98 0.14 2.76 -0.22 c0.52 -0.24 1.42 -0.84 1.42 -2.06 c0 -1.5 -1.6 -2.04 -3.16 -2.34 c-0.14 -0.02 -2.38 -0.48 -3.28 -1 c-1.2 -0.72 -1.84 -1.8 -1.84 -3.12 c0 -0.74 0.24 -1.44 0.66 -2.06 c0.42 -0.56 1 -1.02 1.68 -1.34 c1 -0.48 2.18 -0.62 3.38 -0.42 c1.3 0.22 2.62 0.84 3.78 1.8 l-1.14 1.38 c-2.06 -1.7 -4.06 -1.74 -5.26 -1.18 c-0.82 0.38 -1.3 1.08 -1.3 1.8 c0 1.36 1.16 1.88 3 2.28 c0.76 0.18 2.34 0.44 3.28 0.98 c1.3 0.72 1.98 1.84 1.98 3.22 c0 0.82 -0.22 1.58 -0.68 2.24 c-0.42 0.6 -1.06 1.06 -1.78 1.42 c-0.76 0.38 -1.54 0.5 -2.42 0.5 z M144.62 20 l0 -12.48 l-3.76 0 l0 -1.76 l9.32 0 l0 1.76 l-3.76 0 l0 12.48 l-1.8 0 z M174.14000000000001 20 l-1.58 -4.14 l-5.82 0 l-1.58 4.14 l-1.92 0 l5.48 -14.24 l1.86 0 l5.5 14.24 l-1.94 0 z M171.86 14.1 l-2.2 -5.76 l-2.22 5.76 l4.42 0 z"></path></g></svg>