<?xml version="1.0" standalone="no"?>
<!DOCTYPE svg PUBLIC "-//W3C//DTD SVG 20010904//EN"
 "http://www.w3.org/TR/2001/REC-SVG-20010904/DTD/svg10.dtd">
<svg version="1.0" xmlns="http://www.w3.org/2000/svg"
 width="255.000000pt" height="255.000000pt" viewBox="0 0 255.000000 255.000000"
 preserveAspectRatio="xMidYMid meet">
<metadata>
Created by potrace 1.14, written by Peter Selinger 2001-2017
</metadata>
<g transform="translate(0.000000,255.000000) scale(0.100000,-0.100000)"
fill="#000000" stroke="none">
<path d="M754 1670 c-12 -5 -28 -17 -35 -28 -12 -16 -28 -19 -101 -20 -78 -1
-99 -5 -192 -42 -147 -59 -176 -91 -181 -205 -2 -33 -4 -63 -4 -67 -1 -5 -55
-8 -121 -8 l-120 0 0 -28 0 -27 115 0 c64 0 119 -2 123 -5 4 -3 8 -35 9 -72 3
-115 35 -150 193 -211 83 -32 107 -37 179 -37 76 0 86 -2 107 -25 22 -24 28
-25 143 -25 117 0 120 1 140 26 15 20 21 41 21 80 l0 53 68 3 67 3 1 53 0 52
-68 0 -68 0 0 135 0 135 69 0 69 0 0 56 -1 55 -66 -2 -66 -3 -3 50 c-3 60 -16
88 -49 103 -28 13 -198 14 -229 1z m214 -57 c10 -16 9 -665 -1 -680 -6 -9 -38
-13 -103 -13 l-94 0 -6 28 -6 27 -107 1 c-99 1 -116 4 -203 38 -142 55 -142
55 -146 243 -5 215 -5 213 154 277 82 34 95 36 196 36 108 0 108 0 108 24 0
29 8 32 118 31 52 0 86 -5 90 -12z"/>
<path d="M709 1513 c-1 -5 -2 -115 -3 -245 l-1 -238 28 0 27 0 0 245 0 245
-25 0 c-14 0 -26 -3 -26 -7z"/>
<path d="M1245 1655 l-25 -24 0 -354 c0 -441 -13 -407 161 -407 113 0 121 1
142 24 20 21 32 24 123 28 56 2 108 8 115 14 8 6 51 25 95 43 117 46 145 83
150 191 1 36 3 67 3 70 1 3 54 6 119 5 l117 0 3 28 3 27 -120 0 c-67 0 -121 3
-122 8 -1 4 -2 37 -3 73 -4 110 -33 142 -186 204 -83 33 -106 38 -181 39 -78
1 -89 4 -118 29 -31 26 -37 27 -142 27 -103 0 -111 -1 -134 -25z m233 -39 c6
-4 12 -16 12 -26 0 -17 9 -19 108 -19 100 -1 115 -4 207 -39 149 -58 153 -67
145 -347 -3 -101 -19 -118 -175 -181 -62 -24 -83 -28 -177 -28 -105 0 -108 -1
-108 -22 0 -12 -7 -25 -16 -28 -30 -12 -181 -7 -191 7 -14 19 -11 676 4 685
15 9 175 8 191 -2z"/>
<path d="M1490 1274 l0 -245 28 3 27 3 1 243 0 242 -28 0 -28 0 0 -246z"/>
<path d="M2450 1275 l0 -55 50 0 50 0 0 55 0 55 -50 0 -50 0 0 -55z"/>
</g>
</svg>
